<svg width="102" height="73" viewBox="0 0 102 73" fill="none" xmlns="http://www.w3.org/2000/svg">
<mask id="path-1-outside-1_47_124" maskUnits="userSpaceOnUse" x="15" y="8.98169" width="72" height="61" fill="black">
<rect fill="white" x="15" y="8.98169" width="72" height="61"/>
<path d="M65.7471 15.3215C70.0297 12.5755 75.9605 14.1853 78.9941 18.9163C81.7473 23.21 81.1672 28.5982 77.835 31.6106C79.4049 34.5952 80.3092 37.8007 80.3574 41.052C81.5641 43.0409 82.2119 45.2214 82.2119 47.5432C82.2115 58.1014 68.8346 65.1194 50.2725 65.1194C31.7104 65.1194 19.0004 58.1014 19 47.5432C19 45.3785 19.5346 43.3365 20.5439 41.4583C20.5436 41.4142 20.542 41.3699 20.542 41.3254C20.542 38.0388 21.4227 34.7935 22.9844 31.7708C22.0613 31.1418 21.2542 30.3345 20.624 29.3518C17.8779 25.0692 19.4878 19.1374 24.2188 16.1038C28.9192 13.09 34.9316 14.0713 37.7021 18.2844C41.6467 16.5043 45.9987 15.4739 50.4521 15.4739C54.8306 15.4739 59.1114 16.4684 63.0029 18.1936C63.6678 17.0549 64.5864 16.0658 65.7471 15.3215Z"/>
</mask>
<path d="M65.7471 15.3215L63.588 11.9543L63.5879 11.9543L65.7471 15.3215ZM78.9941 18.9163L82.3614 16.7572L82.3613 16.7571L78.9941 18.9163ZM77.835 31.6106L75.1525 28.6434L72.8497 30.7252L74.2948 33.4727L77.835 31.6106ZM80.3574 41.052L76.3579 41.1113L76.374 42.1978L76.9376 43.1268L80.3574 41.052ZM82.2119 47.5432L86.2119 47.5434V47.5432H82.2119ZM50.2725 65.1194L50.2725 69.1194H50.2725V65.1194ZM19 47.5432H15V47.5434L19 47.5432ZM20.5439 41.4583L24.0674 43.3518L24.5513 42.4513L24.5438 41.429L20.5439 41.4583ZM20.542 41.3254L16.542 41.3254V41.3254H20.542ZM22.9844 31.7708L26.5381 33.6068L28.1641 30.4597L25.2366 28.4651L22.9844 31.7708ZM20.624 29.3518L17.2568 31.511L17.2568 31.511L20.624 29.3518ZM24.2188 16.1038L22.0598 12.7364L22.0596 12.7366L24.2188 16.1038ZM37.7021 18.2844L34.36 20.4822L36.2357 23.3346L39.3475 21.9304L37.7021 18.2844ZM50.4521 15.4739L50.4522 11.4739H50.4521V15.4739ZM63.0029 18.1936L61.3818 21.8504L64.6531 23.3006L66.4573 20.2103L63.0029 18.1936ZM65.7471 15.3215L67.9062 18.6888C70.021 17.3327 73.5781 17.8803 75.6269 21.0754L78.9941 18.9163L82.3613 16.7571C78.3429 10.4903 70.0383 7.81827 63.588 11.9543L65.7471 15.3215ZM78.9941 18.9163L75.6269 21.0754C77.4666 23.9445 76.8467 27.1117 75.1525 28.6434L77.835 31.6106L80.5174 34.5778C85.4876 30.0846 86.028 22.4754 82.3614 16.7572L78.9941 18.9163ZM77.835 31.6106L74.2948 33.4727C75.6117 35.9763 76.3201 38.5687 76.3579 41.1113L80.3574 41.052L84.357 40.9927C84.2982 37.0326 83.198 33.2141 81.3751 29.7485L77.835 31.6106ZM80.3574 41.052L76.9376 43.1268C77.7889 44.5299 78.2119 45.9981 78.2119 47.5432H82.2119H86.2119C86.2119 44.4446 85.3393 41.5519 83.7773 38.9772L80.3574 41.052ZM82.2119 47.5432L78.2119 47.5431C78.2118 50.8521 76.183 54.1221 71.2948 56.775C66.3893 59.4373 59.1169 61.1194 50.2725 61.1194V65.1194V69.1194C59.9901 69.1194 68.6873 67.2924 75.1108 63.8062C81.5517 60.3106 86.2116 54.7925 86.2119 47.5434L82.2119 47.5432ZM50.2725 65.1194L50.2725 61.1194C41.4263 61.1194 34.3443 59.4367 29.6278 56.7994C24.9672 54.1932 23.0001 50.9425 23 47.5431L19 47.5432L15 47.5434C15.0003 54.7021 19.3884 60.2395 25.7234 63.7818C32.0025 67.293 40.5565 69.1194 50.2725 69.1194L50.2725 65.1194ZM19 47.5432H23C23 46.0603 23.3608 44.6666 24.0674 43.3518L20.5439 41.4583L17.0205 39.5648C15.7083 42.0064 15 44.6968 15 47.5432H19ZM20.5439 41.4583L24.5438 41.429C24.5436 41.3988 24.5432 41.3725 24.5429 41.3534C24.5426 41.3363 24.5422 41.3171 24.542 41.3111C24.5418 41.3015 24.5418 41.3004 24.5418 41.3018C24.5419 41.3038 24.542 41.3125 24.542 41.3254H20.542H16.542C16.542 41.3922 16.5432 41.4503 16.5437 41.4729C16.544 41.489 16.5441 41.492 16.5441 41.497C16.5442 41.5 16.5441 41.4957 16.5441 41.4875L20.5439 41.4583ZM20.542 41.3254L24.542 41.3255C24.542 38.7604 25.2292 36.1403 26.5381 33.6068L22.9844 31.7708L19.4306 29.9347C17.6162 33.4467 16.542 37.3172 16.542 41.3254L20.542 41.3254ZM22.9844 31.7708L25.2366 28.4651C24.7369 28.1246 24.3169 27.7005 23.9912 27.1926L20.624 29.3518L17.2568 31.511C18.1914 32.9685 19.3856 34.159 20.7321 35.0764L22.9844 31.7708ZM20.624 29.3518L23.9912 27.1927C22.6351 25.0777 23.1829 21.5197 26.3779 19.471L24.2188 16.1038L22.0596 12.7366C15.7927 16.7551 13.1208 25.0607 17.2568 31.511L20.624 29.3518ZM24.2188 16.1038L26.3777 19.4711C29.5486 17.4381 32.989 18.3973 34.36 20.4822L37.7021 18.2844L41.0443 16.0867C36.8743 9.74525 28.2899 8.74196 22.0598 12.7364L24.2188 16.1038ZM37.7021 18.2844L39.3475 21.9304C42.8205 20.3631 46.6139 19.4739 50.4521 19.4739V15.4739V11.4739C45.3834 11.4739 40.473 12.6455 36.0568 14.6385L37.7021 18.2844ZM50.4521 15.4739L50.4521 19.4739C54.2265 19.4739 57.9573 20.3322 61.3818 21.8504L63.0029 18.1936L64.6241 14.5368C60.2655 12.6046 55.4346 11.4739 50.4522 11.4739L50.4521 15.4739ZM63.0029 18.1936L66.4573 20.2103C66.8186 19.5916 67.3031 19.0755 67.9062 18.6887L65.7471 15.3215L63.5879 11.9543C61.8698 13.056 60.5169 14.5181 59.5485 16.1769L63.0029 18.1936Z" fill="#443D3F" mask="url(#path-1-outside-1_47_124)"/>
<path d="M27.334 20.2226C28.8598 18.8347 31.966 18.7768 32.7834 19.9335C33.6008 21.0901 27.6065 28.319 26.2441 26.2949C24.8817 24.2708 25.4267 21.9575 27.334 20.2226Z" fill="#443D3F"/>
<path d="M72.6406 20.2226C71.1148 18.8347 68.0086 18.7768 67.1912 19.9335C66.3738 21.0901 72.3681 28.319 73.7305 26.2949C75.0929 24.2708 74.5479 21.9575 72.6406 20.2226Z" fill="#443D3F"/>
<path d="M46.9486 38.8337L48.1864 39.9765C48.8053 40.548 49.1766 41.1194 50.6619 41.1194C52.5185 41.1194 51.8996 41.1194 53.7563 39.4051C55.2416 38.0337 54.1689 37.1194 53.1374 37.1194H48.1863C46.3298 37.1194 46.1234 38.2622 46.9486 38.8337Z" fill="#443D3F"/>
<path d="M34.4352 38.1543C34.4657 38.4537 35.8458 36.0583 38.1019 35.9911C40.3579 35.9238 42.6356 38.2101 42.6051 37.9107C42.5746 37.6113 41.3269 35.1037 37.9267 35.251C34.1861 35.4131 34.4047 37.8549 34.4352 38.1543Z" fill="#443D3F" stroke="#443D3F"/>
<path d="M66.203 38.1543C66.1725 38.4537 64.7924 36.0583 62.5363 35.9911C60.2802 35.9238 58.0026 38.2101 58.0331 37.9107C58.0636 37.6113 59.3113 35.1037 62.7114 35.251C66.452 35.4131 66.2335 37.8549 66.203 38.1543Z" fill="#443D3F" stroke="#443D3F"/>
<ellipse cx="50.4873" cy="46.6194" rx="3" ry="4.5" fill="#443D3F"/>
<path d="M93.1772 26.1224L87.9354 19.7177L93.3817 18.8888L93.1772 26.1224Z" fill="#443D3F"/>
<path d="M85.3794 3.85267L84.8993 11.7608L89.5851 4.1372L85.3794 3.85267Z" fill="#443D3F"/>
<path d="M97.4478 13.7441L91.6561 12.533L94.5501 7.37207L97.4478 13.7441Z" fill="#443D3F"/>
<path d="M93.1772 26.1224L87.9354 19.7177L93.3817 18.8888L93.1772 26.1224Z" stroke="#443D3F" stroke-linejoin="round"/>
<path d="M85.3794 3.85267L84.8993 11.7608L89.5851 4.1372L85.3794 3.85267Z" stroke="#443D3F" stroke-linejoin="round"/>
<path d="M97.4478 13.7441L91.6561 12.533L94.5501 7.37207L97.4478 13.7441Z" stroke="#443D3F" stroke-linejoin="round"/>
</svg>
