<svg width="101" height="73" viewBox="0 0 101 73" fill="none" xmlns="http://www.w3.org/2000/svg">
<mask id="path-1-outside-1_47_121" maskUnits="userSpaceOnUse" x="12" y="10" width="77" height="59" fill="black">
<rect fill="white" x="12" y="10" width="77" height="59"/>
<path d="M67.6846 16.4619C72.3562 13.4663 78.8264 15.2212 82.1357 20.3818C85.4002 25.4727 84.3674 31.9726 79.8545 35.0234C80.4881 36.9478 80.8402 38.9301 80.8701 40.9297C82.0776 42.9192 82.7246 45.1002 82.7246 47.4229C82.7246 57.9812 69.3483 64.9999 50.7861 65C32.2237 65 19.5127 57.9813 19.5127 47.4229C19.5127 45.2587 20.0477 43.2177 21.0566 41.3398C21.0563 41.2955 21.0547 41.2509 21.0547 41.2061C21.0547 39.1126 21.4122 37.0356 22.0752 35.0225C20.63 34.2853 19.3768 33.1924 18.4619 31.7656C15.4666 27.0939 17.2221 20.6246 22.3828 17.3154C27.2283 14.2085 33.3518 14.9928 36.5615 18.9668C40.9267 16.6972 45.8795 15.3545 50.9648 15.3545C55.9707 15.3545 60.8482 16.6559 65.1631 18.8613C65.8311 17.9266 66.6744 17.1097 67.6846 16.4619Z"/>
</mask>
<path d="M67.6846 16.4619L65.5254 13.0947L65.5253 13.0948L67.6846 16.4619ZM82.1357 20.3818L85.503 18.2227L85.5029 18.2226L82.1357 20.3818ZM79.8545 35.0234L77.6143 31.7096L75.1096 33.4029L76.0552 36.2745L79.8545 35.0234ZM80.8701 40.9297L76.8706 40.9896L76.8868 42.0761L77.4506 43.005L80.8701 40.9297ZM82.7246 47.4229H86.7246V47.4228L82.7246 47.4229ZM50.7861 65V69H50.7862L50.7861 65ZM19.5127 47.4229L15.5127 47.4228V47.4229H19.5127ZM21.0566 41.3398L24.5803 43.233L25.0641 42.3325L25.0565 41.3103L21.0566 41.3398ZM21.0547 41.2061H17.0547V41.2061L21.0547 41.2061ZM22.0752 35.0225L25.8745 36.2736L26.9469 33.0172L23.8928 31.4593L22.0752 35.0225ZM18.4619 31.7656L15.0946 33.9246L15.0947 33.9248L18.4619 31.7656ZM22.3828 17.3154L20.2237 13.9482L20.2237 13.9482L22.3828 17.3154ZM36.5615 18.9668L33.4497 21.4801L35.5048 24.0246L38.4067 22.5158L36.5615 18.9668ZM50.9648 15.3545V11.3545H50.9648L50.9648 15.3545ZM65.1631 18.8613L63.3426 22.4231L66.4128 23.9922L68.4175 21.187L65.1631 18.8613ZM67.6846 16.4619L69.8437 19.8291C72.3483 18.2231 76.4446 18.917 78.7686 22.5411L82.1357 20.3818L85.5029 18.2226C81.2082 11.5254 72.3641 8.70956 65.5254 13.0947L67.6846 16.4619ZM82.1357 20.3818L78.7685 22.541C81.0569 26.1098 80.0417 30.0686 77.6143 31.7096L79.8545 35.0234L82.0947 38.3372C88.693 33.8767 89.7434 24.8357 85.503 18.2227L82.1357 20.3818ZM79.8545 35.0234L76.0552 36.2745C76.571 37.8409 76.8471 39.4221 76.8706 40.9896L80.8701 40.9297L84.8697 40.8698C84.8333 38.4381 84.4053 36.0546 83.6538 33.7724L79.8545 35.0234ZM80.8701 40.9297L77.4506 43.005C78.3017 44.4074 78.7246 45.8759 78.7246 47.4229L82.7246 47.4229L86.7246 47.4228C86.7246 44.3246 85.8534 41.431 84.2896 38.8543L80.8701 40.9297ZM82.7246 47.4229H78.7246C78.7246 50.732 76.696 54.0022 71.808 56.6552C66.9027 59.3177 59.6305 61 50.7861 61L50.7861 65L50.7862 69C60.5039 68.9999 69.201 67.1728 75.6243 63.6863C82.0651 60.1904 86.7246 54.672 86.7246 47.4229H82.7246ZM50.7861 65V61C41.9399 61 34.8575 59.3172 30.1408 56.6796C25.4798 54.0732 23.5127 50.8223 23.5127 47.4229H19.5127H15.5127C15.5127 54.5819 19.9011 60.1195 26.2362 63.6621C32.5157 67.1735 41.07 69 50.7861 69V65ZM19.5127 47.4229L23.5127 47.4229C23.5127 45.9413 23.8735 44.5484 24.5803 43.233L21.0566 41.3398L17.533 39.4467C16.2219 41.887 15.5127 44.5761 15.5127 47.4228L19.5127 47.4229ZM21.0566 41.3398L25.0565 41.3103C25.0563 41.2803 25.0559 41.2542 25.0556 41.2352C25.0553 41.2182 25.0549 41.199 25.0547 41.1929C25.0545 41.1833 25.0545 41.182 25.0545 41.1832C25.0546 41.1851 25.0547 41.1934 25.0547 41.206L21.0547 41.2061L17.0547 41.2061C17.0547 41.2725 17.0559 41.3303 17.0563 41.3533C17.0567 41.3695 17.0567 41.3726 17.0568 41.3779C17.0569 41.3811 17.0568 41.3772 17.0567 41.3694L21.0566 41.3398ZM21.0547 41.2061H25.0547C25.0547 39.5707 25.3337 37.9156 25.8745 36.2736L22.0752 35.0225L18.2759 33.7713C17.4907 36.1555 17.0547 38.6545 17.0547 41.2061H21.0547ZM22.0752 35.0225L23.8928 31.4593C23.0457 31.0272 22.3412 30.405 21.8291 29.6065L18.4619 31.7656L15.0947 33.9248C16.4125 35.9798 18.2142 37.5433 20.2576 38.5857L22.0752 35.0225ZM18.4619 31.7656L21.8292 29.6066C20.2236 27.1023 20.9174 23.0068 24.542 20.6826L22.3828 17.3154L20.2237 13.9482C13.5268 18.2424 10.7096 27.0855 15.0946 33.9246L18.4619 31.7656ZM22.3828 17.3154L24.5419 20.6827C27.9239 18.5141 31.7032 19.3177 33.4497 21.4801L36.5615 18.9668L39.6733 16.4535C35.0004 10.6679 26.5327 9.90283 20.2237 13.9482L22.3828 17.3154ZM36.5615 18.9668L38.4067 22.5158C42.2561 20.5144 46.5803 19.3545 50.9649 19.3545L50.9648 15.3545L50.9648 11.3545C45.1788 11.3546 39.5972 12.8801 34.7163 15.4178L36.5615 18.9668ZM50.9648 15.3545V19.3545C55.2805 19.3545 59.5381 20.4785 63.3426 22.4231L65.1631 18.8613L66.9835 15.2996C62.1583 12.8334 56.6608 11.3545 50.9648 11.3545V15.3545ZM65.1631 18.8613L68.4175 21.187C68.7981 20.6545 69.2733 20.195 69.8439 19.829L67.6846 16.4619L65.5253 13.0948C64.0756 14.0245 62.8641 15.1987 61.9087 16.5356L65.1631 18.8613Z" fill="#443D3F" mask="url(#path-1-outside-1_47_121)"/>
<path d="M25.2568 22.7549C26.9836 21.2748 30.4988 21.2131 31.4238 22.4465C32.3489 23.6799 25.5652 31.3888 24.0234 29.2303C22.4816 27.0718 23.0984 24.605 25.2568 22.7549Z" fill="#443D3F"/>
<path d="M76.5298 22.7549C74.803 21.2748 71.2878 21.2131 70.3628 22.4465C69.4377 23.6799 76.2214 31.3888 77.7632 29.2303C79.305 27.0718 78.6883 24.605 76.5298 22.7549Z" fill="#443D3F"/>
<path d="M45.9376 45.0663L47.4643 46.4759C48.2276 47.1807 48.6856 47.8855 50.5176 47.8855C52.8076 47.8855 52.0442 47.8855 54.3342 45.7711C56.1662 44.0796 54.8431 42.9519 53.5709 42.9519H47.4642C45.1743 42.9519 44.9198 44.3615 45.9376 45.0663Z" fill="#443D3F" stroke="#443D3F"/>
<ellipse cx="61.5763" cy="40.298" rx="3.77135" ry="0.925051" transform="rotate(19.4072 61.5763 40.298)" fill="#443D3F"/>
<ellipse cx="3.77135" cy="0.925051" rx="3.77135" ry="0.925051" transform="matrix(-0.943181 0.33228 0.33228 0.943181 43.2314 38.1724)" fill="#443D3F"/>
</svg>
