<svg width="101" height="73" viewBox="0 0 101 73" fill="none" xmlns="http://www.w3.org/2000/svg">
<mask id="path-1-outside-1_47_123" maskUnits="userSpaceOnUse" x="12" y="10" width="77" height="59" fill="black">
<rect fill="white" x="12" y="10" width="77" height="59"/>
<path d="M67.6846 16.4619C72.3562 13.4663 78.8264 15.2212 82.1357 20.3818C85.4003 25.4729 84.3668 31.9727 79.8535 35.0234C80.4872 36.9478 80.8402 38.93 80.8701 40.9297C82.0775 42.9191 82.7246 45.1003 82.7246 47.4229C82.7246 57.9813 69.3476 65 50.7852 65C32.2229 64.9999 19.5127 57.9812 19.5127 47.4229C19.5127 45.2581 20.0471 43.2162 21.0566 41.3379C21.0563 41.2942 21.0547 41.2502 21.0547 41.2061C21.0547 39.1126 21.4122 37.0356 22.0752 35.0225C20.6301 34.2853 19.3768 33.1933 18.4619 31.7666C15.4663 27.095 17.2212 20.6248 22.3818 17.3154C27.2271 14.2085 33.3516 14.9922 36.5615 18.9658C40.9266 16.6964 45.8797 15.3545 50.9648 15.3545C55.9706 15.3545 60.8473 16.657 65.1621 18.8623C65.8303 17.9271 66.674 17.1099 67.6846 16.4619Z"/>
</mask>
<path d="M67.6846 16.4619L65.5254 13.0947L65.5254 13.0947L67.6846 16.4619ZM82.1357 20.3818L85.503 18.2227L85.5029 18.2226L82.1357 20.3818ZM79.8535 35.0234L77.6135 31.7095L75.1085 33.4027L76.0542 36.2745L79.8535 35.0234ZM80.8701 40.9297L76.8706 40.9896L76.8868 42.0761L77.4506 43.005L80.8701 40.9297ZM82.7246 47.4229H86.7246V47.4228L82.7246 47.4229ZM50.7852 65L50.7851 69H50.7852V65ZM19.5127 47.4229L15.5127 47.4228V47.4229H19.5127ZM21.0566 41.3379L24.58 43.2315L25.064 42.3311L25.0565 41.3088L21.0566 41.3379ZM21.0547 41.2061H17.0547V41.2061L21.0547 41.2061ZM22.0752 35.0225L25.8745 36.2737L26.9469 33.0171L23.8927 31.4592L22.0752 35.0225ZM18.4619 31.7666L15.0947 33.9257L15.0948 33.9259L18.4619 31.7666ZM22.3818 17.3154L20.2227 13.9482L20.2226 13.9483L22.3818 17.3154ZM36.5615 18.9658L33.4499 21.4794L35.505 24.0234L38.4067 22.5148L36.5615 18.9658ZM50.9648 15.3545V11.3545H50.9648L50.9648 15.3545ZM65.1621 18.8623L63.3417 22.4241L66.4122 23.9934L68.4168 21.1876L65.1621 18.8623ZM67.6846 16.4619L69.8437 19.8291C72.3484 18.2231 76.4446 18.917 78.7686 22.541L82.1357 20.3818L85.5029 18.2226C81.2083 11.5254 72.3641 8.70956 65.5254 13.0947L67.6846 16.4619ZM82.1357 20.3818L78.7685 22.541C81.0568 26.1095 80.0415 30.0683 77.6135 31.7095L79.8535 35.0234L82.0936 38.3374C88.6921 33.8772 89.7437 24.8362 85.503 18.2227L82.1357 20.3818ZM79.8535 35.0234L76.0542 36.2745C76.5704 37.8422 76.8471 39.4232 76.8706 40.9896L80.8701 40.9297L84.8697 40.8698C84.8332 38.4368 84.404 36.0534 83.6528 33.7723L79.8535 35.0234ZM80.8701 40.9297L77.4506 43.005C78.3017 44.4073 78.7246 45.8759 78.7246 47.4229L82.7246 47.4229L86.7246 47.4228C86.7246 44.3246 85.8534 41.4309 84.2896 38.8543L80.8701 40.9297ZM82.7246 47.4229H78.7246C78.7246 50.732 76.6959 54.0022 71.8077 56.6553C66.9021 59.3178 59.6297 61 50.7852 61V65V69C60.503 69 69.2003 67.1728 75.6239 63.6864C82.0648 60.1905 86.7246 54.6721 86.7246 47.4229H82.7246ZM50.7852 65L50.7852 61C41.939 61 34.8569 59.3171 30.1404 56.6796C25.4797 54.0733 23.5127 50.8223 23.5127 47.4229H19.5127H15.5127C15.5127 54.5817 19.9008 60.1194 26.2358 63.662C32.515 67.1734 41.0691 69 50.7851 69L50.7852 65ZM19.5127 47.4229L23.5127 47.4229C23.5127 45.9397 23.8734 44.5462 24.58 43.2315L21.0566 41.3379L17.5333 39.4443C16.2208 41.8862 15.5127 44.5765 15.5127 47.4228L19.5127 47.4229ZM21.0566 41.3379L25.0565 41.3088C25.0563 41.2784 25.0559 41.2519 25.0555 41.2328C25.0552 41.2156 25.0548 41.1965 25.0547 41.1905C25.0545 41.181 25.0545 41.18 25.0545 41.1816C25.0546 41.1839 25.0547 41.1928 25.0547 41.206L21.0547 41.2061L17.0547 41.2061C17.0547 41.273 17.0559 41.3313 17.0564 41.3538C17.0567 41.3697 17.0568 41.3726 17.0569 41.3773C17.0569 41.3801 17.0568 41.3755 17.0567 41.367L21.0566 41.3379ZM21.0547 41.2061H25.0547C25.0547 39.5706 25.3337 37.9156 25.8745 36.2737L22.0752 35.0225L18.2759 33.7713C17.4907 36.1556 17.0547 38.6545 17.0547 41.2061H21.0547ZM22.0752 35.0225L23.8927 31.4592C23.0449 31.0268 22.3406 30.405 21.829 29.6073L18.4619 31.7666L15.0948 33.9259C16.4131 35.9815 18.2153 37.5439 20.2577 38.5857L22.0752 35.0225ZM18.4619 31.7666L21.8291 29.6075C20.2231 27.1029 20.917 23.0066 24.5411 20.6826L22.3818 17.3154L20.2226 13.9483C13.5255 18.2429 10.7096 27.0871 15.0947 33.9257L18.4619 31.7666ZM22.3818 17.3154L24.541 20.6826C27.9231 18.5139 31.7035 19.3174 33.4499 21.4794L36.5615 18.9658L39.6731 16.4523C34.9998 10.6671 26.5311 9.90307 20.2227 13.9482L22.3818 17.3154ZM36.5615 18.9658L38.4067 22.5148C42.2556 20.5138 46.58 19.3545 50.9648 19.3545L50.9648 15.3545L50.9648 11.3545C45.1794 11.3545 39.5976 12.8791 34.7164 15.4168L36.5615 18.9658ZM50.9648 15.3545V19.3545C55.2798 19.3545 59.5365 20.4792 63.3417 22.4241L65.1621 18.8623L66.9825 15.3006C62.158 12.8347 56.6614 11.3545 50.9648 11.3545V15.3545ZM65.1621 18.8623L68.4168 21.1876C68.7973 20.655 69.2727 20.1953 69.8438 19.8291L67.6846 16.4619L65.5254 13.0947C64.0753 14.0246 62.8632 15.1992 61.9074 16.537L65.1621 18.8623Z" fill="#443D3F" mask="url(#path-1-outside-1_47_123)"/>
<path d="M25.2563 22.7549C26.9831 21.2748 30.4983 21.2131 31.4234 22.4465C32.3484 23.6799 25.5647 31.3888 24.0229 29.2303C22.4811 27.0718 23.0979 24.605 25.2563 22.7549Z" fill="#443D3F"/>
<path d="M76.5293 22.7549C74.8025 21.2748 71.2873 21.2131 70.3623 22.4465C69.4372 23.6799 76.2209 31.3888 77.7627 29.2303C79.3045 27.0718 78.6878 24.605 76.5293 22.7549Z" fill="#443D3F"/>
<path d="M46.5689 45.0663L48.0957 46.4759C48.859 47.1807 49.3169 47.8855 51.1489 47.8855C53.4389 47.8855 52.6756 47.8855 54.9656 45.7711C56.7976 44.0796 55.4745 42.9519 54.2022 42.9519H48.0956C45.8057 42.9519 45.5512 44.3615 46.5689 45.0663Z" fill="#443D3F" stroke="#443D3F"/>
<path d="M34.9479 42.0347C34.9784 42.3341 36.3585 39.9387 38.6146 39.8714C40.8706 39.8042 43.1483 42.0905 43.1178 41.7911C43.0873 41.4917 41.8396 38.9841 38.4394 39.1314C34.6988 39.2935 34.9174 41.7353 34.9479 42.0347Z" fill="#443D3F" stroke="#443D3F"/>
<path d="M66.7157 42.0347C66.6852 42.3341 65.3051 39.9387 63.049 39.8714C60.7929 39.8042 58.5153 42.0905 58.5458 41.7911C58.5763 41.4917 59.824 38.9841 63.2241 39.1314C66.9647 39.2935 66.7462 41.7353 66.7157 42.0347Z" fill="#443D3F" stroke="#443D3F"/>
</svg>
