<svg width="76" height="59" viewBox="0 0 76 59" fill="none" xmlns="http://www.w3.org/2000/svg">
<mask id="path-1-outside-1_47_154" maskUnits="userSpaceOnUse" x="-0.986816" y="-0.986572" width="77" height="59" fill="black">
<rect fill="white" x="-0.986816" y="-0.986572" width="77" height="59"/>
<path d="M54.6978 5.47534C59.3694 2.47974 65.8396 4.23458 69.1489 9.39526C72.4135 14.4863 71.3799 20.9862 66.8667 24.0369C67.5004 25.9613 67.8533 27.9434 67.8833 29.9431C69.0907 31.9325 69.7378 34.1137 69.7378 36.4363C69.7378 46.9947 56.3607 54.0134 37.7983 54.0134C19.2361 54.0134 6.52588 46.9947 6.52588 36.4363C6.52591 34.2715 7.06033 32.2296 8.06982 30.3513C8.06951 30.3076 8.06787 30.2636 8.06787 30.2195C8.06787 28.126 8.42539 26.049 9.08838 24.0359C7.64324 23.2988 6.39002 22.2067 5.4751 20.78C2.47952 16.1084 4.23442 9.63819 9.39502 6.32886C14.2403 3.22191 20.3648 4.00564 23.5747 7.97925C27.9398 5.70984 32.8929 4.36792 37.978 4.36792C42.9838 4.36792 47.8604 5.6704 52.1753 7.87573C52.8434 6.94054 53.6872 6.12337 54.6978 5.47534Z"/>
</mask>
<path d="M54.6978 5.47534C59.3694 2.47974 65.8396 4.23458 69.1489 9.39526C72.4135 14.4863 71.3799 20.9862 66.8667 24.0369C67.5004 25.9613 67.8533 27.9434 67.8833 29.9431C69.0907 31.9325 69.7378 34.1137 69.7378 36.4363C69.7378 46.9947 56.3607 54.0134 37.7983 54.0134C19.2361 54.0134 6.52588 46.9947 6.52588 36.4363C6.52591 34.2715 7.06033 32.2296 8.06982 30.3513C8.06951 30.3076 8.06787 30.2636 8.06787 30.2195C8.06787 28.126 8.42539 26.049 9.08838 24.0359C7.64324 23.2988 6.39002 22.2067 5.4751 20.78C2.47952 16.1084 4.23442 9.63819 9.39502 6.32886C14.2403 3.22191 20.3648 4.00564 23.5747 7.97925C27.9398 5.70984 32.8929 4.36792 37.978 4.36792C42.9838 4.36792 47.8604 5.6704 52.1753 7.87573C52.8434 6.94054 53.6872 6.12337 54.6978 5.47534Z" fill="#978A8D"/>
<path d="M54.6978 5.47534L52.5386 2.10813L52.5385 2.10817L54.6978 5.47534ZM69.1489 9.39526L72.5161 7.23612L72.5161 7.23605L69.1489 9.39526ZM66.8667 24.0369L64.6267 20.7229L62.1217 22.4161L63.0674 25.288L66.8667 24.0369ZM67.8833 29.9431L63.8838 30.003L63.9 31.0895L64.4638 32.0185L67.8833 29.9431ZM69.7378 36.4363H73.7378V36.4362L69.7378 36.4363ZM37.7983 54.0134L37.7983 58.0134H37.7983V54.0134ZM6.52588 36.4363L2.52588 36.4362V36.4363H6.52588ZM8.06982 30.3513L11.5932 32.2449L12.0772 31.3445L12.0697 30.3222L8.06982 30.3513ZM8.06787 30.2195H4.06787V30.2195L8.06787 30.2195ZM9.08838 24.0359L12.8877 25.2871L13.9601 22.0305L10.9059 20.4727L9.08838 24.0359ZM5.4751 20.78L2.10789 22.9392L2.10801 22.9394L5.4751 20.78ZM9.39502 6.32886L7.23587 2.96165L7.23578 2.96171L9.39502 6.32886ZM23.5747 7.97925L20.4631 10.4928L22.5182 13.0368L25.4198 11.5283L23.5747 7.97925ZM37.978 4.36792V0.36792H37.978L37.978 4.36792ZM52.1753 7.87573L50.3549 11.4375L53.4254 13.0068L55.43 10.201L52.1753 7.87573ZM54.6978 5.47534L56.8569 8.84255C59.3616 7.23649 63.4578 7.93038 65.7818 11.5545L69.1489 9.39526L72.5161 7.23605C68.2214 0.538788 59.3773 -2.27701 52.5386 2.10813L54.6978 5.47534ZM69.1489 9.39526L65.7817 11.5544C68.07 15.123 67.0546 19.0817 64.6267 20.7229L66.8667 24.0369L69.1067 27.3508C75.7052 22.8906 76.7569 13.8497 72.5161 7.23612L69.1489 9.39526ZM66.8667 24.0369L63.0674 25.288C63.5836 26.8557 63.8603 28.4366 63.8838 30.003L67.8833 29.9431L71.8829 29.8832C71.8464 27.4502 71.4172 25.0669 70.666 22.7858L66.8667 24.0369ZM67.8833 29.9431L64.4638 32.0185C65.3149 33.4207 65.7378 34.8894 65.7378 36.4363L69.7378 36.4363L73.7378 36.4362C73.7377 33.3381 72.8666 30.4444 71.3028 27.8678L67.8833 29.9431ZM69.7378 36.4363H65.7378C65.7378 39.7454 63.7091 43.0156 58.8209 45.6687C53.9153 48.3312 46.6429 50.0134 37.7983 50.0134V54.0134V58.0134C47.5162 58.0134 56.2135 56.1863 62.6371 52.6998C69.078 49.204 73.7378 43.6856 73.7378 36.4363H69.7378ZM37.7983 54.0134L37.7984 50.0134C28.9522 50.0134 21.8701 48.3305 17.1536 45.693C12.4929 43.0867 10.5259 39.8358 10.5259 36.4363H6.52588H2.52588C2.52588 43.5952 6.91397 49.1328 13.2489 52.6754C19.5282 56.1868 28.0822 58.0134 37.7983 58.0134L37.7983 54.0134ZM6.52588 36.4363L10.5259 36.4363C10.5259 34.9531 10.8866 33.5596 11.5932 32.2449L8.06982 30.3513L4.54645 28.4577C3.23403 30.8996 2.52593 33.5899 2.52588 36.4362L6.52588 36.4363ZM8.06982 30.3513L12.0697 30.3222C12.0695 30.2918 12.0691 30.2654 12.0687 30.2462C12.0684 30.2291 12.068 30.2099 12.0679 30.2039C12.0677 30.1945 12.0677 30.1934 12.0677 30.1951C12.0677 30.1973 12.0679 30.2062 12.0679 30.2194L8.06787 30.2195L4.06787 30.2195C4.06787 30.2865 4.0691 30.3447 4.06956 30.3672C4.06989 30.3832 4.06995 30.386 4.07004 30.3907C4.07009 30.3935 4.06999 30.3889 4.06993 30.3804L8.06982 30.3513ZM8.06787 30.2195H12.0679C12.0679 28.5841 12.3469 26.9291 12.8877 25.2871L9.08838 24.0359L5.28911 22.7847C4.50388 25.169 4.06787 27.6679 4.06787 30.2195H8.06787ZM9.08838 24.0359L10.9059 20.4727C10.058 20.0402 9.35377 19.4184 8.84219 18.6207L5.4751 20.78L2.10801 22.9394C3.42627 24.995 5.22844 26.5573 7.27086 27.5991L9.08838 24.0359ZM5.4751 20.78L8.84231 18.6209C7.23629 16.1163 7.93018 12.02 11.5543 9.696L9.39502 6.32886L7.23578 2.96171C0.538662 7.25636 -2.27725 16.1005 2.10789 22.9392L5.4751 20.78ZM9.39502 6.32886L11.5542 9.69606C14.9363 7.52733 18.7166 8.33081 20.4631 10.4928L23.5747 7.97925L26.6863 5.46569C22.013 -0.319519 13.5443 -1.0835 7.23587 2.96165L9.39502 6.32886ZM23.5747 7.97925L25.4198 11.5283C29.2688 9.5272 33.5932 8.36792 37.978 8.36792L37.978 4.36792L37.978 0.36792C32.1925 0.367925 26.6108 1.89249 21.7296 4.43024L23.5747 7.97925ZM37.978 4.36792V8.36792C42.2929 8.36792 46.5497 9.49265 50.3549 11.4375L52.1753 7.87573L53.9957 4.31398C49.1712 1.84815 43.6746 0.36792 37.978 0.36792V4.36792ZM52.1753 7.87573L55.43 10.201C55.8105 9.66847 56.2858 9.20874 56.857 8.84251L54.6978 5.47534L52.5385 2.10817C51.0885 3.038 49.8764 4.21262 48.9206 5.55042L52.1753 7.87573Z" fill="#978A8D" mask="url(#path-1-outside-1_47_154)"/>
</svg>
