<svg width="76" height="59" viewBox="0 0 76 59" fill="none" xmlns="http://www.w3.org/2000/svg">
<mask id="path-1-outside-1_47_153" maskUnits="userSpaceOnUse" x="-0.986816" y="-0.986816" width="77" height="59" fill="black">
<rect fill="white" x="-0.986816" y="-0.986816" width="77" height="59"/>
<path d="M54.6978 5.47519C59.3695 2.47959 65.8397 4.23443 69.149 9.39511C72.4135 14.4862 71.38 20.986 66.8668 24.0367C67.5005 25.9611 67.8534 27.9433 67.8834 29.943C69.0908 31.9324 69.7378 34.1136 69.7379 36.4361C69.7379 46.9946 56.3608 54.0133 37.7984 54.0133C19.2362 54.0132 6.52594 46.9945 6.52594 36.4361C6.52598 34.2714 7.06039 32.2295 8.06989 30.3512C8.06957 30.3074 8.06793 30.2635 8.06793 30.2193C8.06793 28.1258 8.42546 26.0489 9.08844 24.0357C7.6433 23.2986 6.39008 22.2065 5.47516 20.7799C2.47958 16.1082 4.23448 9.63803 9.39508 6.3287C14.2404 3.22176 20.3649 4.00549 23.5748 7.97909C27.9398 5.70969 32.8929 4.36777 37.9781 4.36777C42.9838 4.36777 47.8605 5.67024 52.1754 7.87558C52.8435 6.94039 53.6872 6.12322 54.6978 5.47519Z"/>
</mask>
<path d="M54.6978 5.47519L52.5387 2.10798L52.5386 2.10802L54.6978 5.47519ZM69.149 9.39511L72.5162 7.23596L72.5162 7.2359L69.149 9.39511ZM66.8668 24.0367L64.6267 20.7228L62.1218 22.416L63.0675 25.2878L66.8668 24.0367ZM67.8834 29.943L63.8838 30.0029L63.9001 31.0894L64.4639 32.0183L67.8834 29.943ZM69.7379 36.4361H73.7379V36.4361L69.7379 36.4361ZM37.7984 54.0133L37.7984 58.0133H37.7984V54.0133ZM6.52594 36.4361L2.52594 36.4361V36.4361H6.52594ZM8.06989 30.3512L11.5933 32.2448L12.0772 31.3443L12.0698 30.3221L8.06989 30.3512ZM8.06793 30.2193H4.06793V30.2194L8.06793 30.2193ZM9.08844 24.0357L12.8877 25.2869L13.9602 22.0304L10.906 20.4725L9.08844 24.0357ZM5.47516 20.7799L2.10795 22.939L2.10807 22.9392L5.47516 20.7799ZM9.39508 6.3287L7.23594 2.9615L7.23584 2.96156L9.39508 6.3287ZM23.5748 7.97909L20.4632 10.4926L22.5182 13.0367L25.4199 11.5281L23.5748 7.97909ZM37.9781 4.36777V0.367765H37.9781L37.9781 4.36777ZM52.1754 7.87558L50.3549 11.4373L53.4254 13.0067L55.43 10.2009L52.1754 7.87558ZM54.6978 5.47519L56.857 8.84239C59.3616 7.23634 63.4579 7.93022 65.7818 11.5543L69.149 9.39511L72.5162 7.2359C68.2215 0.538633 59.3773 -2.27716 52.5387 2.10798L54.6978 5.47519ZM69.149 9.39511L65.7818 11.5543C68.07 15.1228 67.0547 19.0816 64.6267 20.7228L66.8668 24.0367L69.1068 27.3507C75.7053 22.8904 76.757 13.8495 72.5162 7.23596L69.149 9.39511ZM66.8668 24.0367L63.0675 25.2878C63.5837 26.8555 63.8604 28.4365 63.8838 30.0029L67.8834 29.943L71.8829 29.8831C71.8465 27.4501 71.4172 25.0667 70.6661 22.7856L66.8668 24.0367ZM67.8834 29.943L64.4639 32.0183C65.3149 33.4206 65.7378 34.8892 65.7379 36.4362L69.7379 36.4361L73.7379 36.4361C73.7378 33.3379 72.8666 30.4442 71.3029 27.8676L67.8834 29.943ZM69.7379 36.4361H65.7379C65.7379 39.7453 63.7091 43.0154 58.8209 45.6685C53.9154 48.3311 46.6429 50.0133 37.7984 50.0133V54.0133V58.0133C47.5163 58.0133 56.2135 56.1861 62.6371 52.6997C69.078 49.2038 73.7379 43.6854 73.7379 36.4361H69.7379ZM37.7984 54.0133L37.7984 50.0133C28.9523 50.0132 21.8701 48.3304 17.1537 45.6929C12.493 43.0865 10.5259 39.8356 10.5259 36.4361H6.52594H2.52594C2.52594 43.595 6.91403 49.1326 13.249 52.6753C19.5282 56.1867 28.0823 58.0132 37.7984 58.0133L37.7984 54.0133ZM6.52594 36.4361L10.5259 36.4362C10.526 34.953 10.8867 33.5595 11.5933 32.2448L8.06989 30.3512L4.54651 28.4575C3.23409 30.8995 2.52599 33.5898 2.52594 36.4361L6.52594 36.4361ZM8.06989 30.3512L12.0698 30.3221C12.0696 30.2917 12.0691 30.2652 12.0688 30.2461C12.0685 30.2289 12.0681 30.2098 12.068 30.2038C12.0678 30.1943 12.0678 30.1933 12.0678 30.1949C12.0678 30.1971 12.0679 30.206 12.0679 30.2193L8.06793 30.2193L4.06793 30.2194C4.06793 30.2863 4.06917 30.3446 4.06962 30.367C4.06995 30.383 4.07001 30.3858 4.0701 30.3906C4.07015 30.3933 4.07006 30.3888 4.06999 30.3802L8.06989 30.3512ZM8.06793 30.2193H12.0679C12.0679 28.5839 12.347 26.9289 12.8877 25.2869L9.08844 24.0357L5.28917 22.7845C4.50394 25.1689 4.06793 27.6678 4.06793 30.2193H8.06793ZM9.08844 24.0357L10.906 20.4725C10.0581 20.04 9.35383 19.4183 8.84225 18.6205L5.47516 20.7799L2.10807 22.9392C3.42633 24.9948 5.2285 26.5572 7.27092 27.599L9.08844 24.0357ZM5.47516 20.7799L8.84237 18.6207C7.23635 16.1161 7.93024 12.0199 11.5543 9.69585L9.39508 6.3287L7.23584 2.96156C0.538725 7.2562 -2.27719 16.1004 2.10795 22.939L5.47516 20.7799ZM9.39508 6.3287L11.5542 9.69591C14.9364 7.52717 18.7167 8.33065 20.4632 10.4926L23.5748 7.97909L26.6864 5.46554C22.0131 -0.319674 13.5444 -1.08366 7.23594 2.9615L9.39508 6.3287ZM23.5748 7.97909L25.4199 11.5281C29.2688 9.52704 33.5932 8.36777 37.9781 8.36777L37.9781 4.36777L37.9781 0.367765C32.1926 0.367771 26.6108 1.89234 21.7296 4.43008L23.5748 7.97909ZM37.9781 4.36777V8.36777C42.293 8.36777 46.5498 9.49249 50.3549 11.4373L52.1754 7.87558L53.9958 4.31383C49.1713 1.84799 43.6746 0.367765 37.9781 0.367765V4.36777ZM52.1754 7.87558L55.43 10.2009C55.8105 9.66832 56.2859 9.20859 56.857 8.84236L54.6978 5.47519L52.5386 2.10802C51.0886 3.03784 49.8765 4.21246 48.9207 5.55026L52.1754 7.87558Z" fill="#443D3F" mask="url(#path-1-outside-1_47_153)"/>
</svg>
